<svg width="342" height="360" viewBox="0 0 342 360" fill="none" xmlns="http://www.w3.org/2000/svg">
<path d="M26.9997 24C48.5793 10.3617 109.5 21.8333 136.5 24C155.333 25 191.5 15.8859 228.5 5.50001C257 -2.49996 300.5 13.5 315 39C329.5 64.5 307.021 117 305 165.5C303.5 201.5 317 238 335 272C353 306 301.274 360.638 283.5 347.5C249 322 162.499 356.5 120.499 356.5C93.9237 356.5 27.9301 325.522 20.9991 304C11.499 274.5 20.9991 259.717 35.4997 231.5C48.09 207 5.79918 168.162 26.9997 122.5C46.5 80.5 -35.5 63.5 26.9997 24Z" stroke="#CCCCCC" stroke-width="6"/>
</svg>
