<svg width="344" height="362" viewBox="0 0 344 362" fill="none" xmlns="http://www.w3.org/2000/svg">
<path d="M27.9997 25C49.5793 11.3617 110.5 22.8333 137.5 25C156.333 26 192.5 16.8859 229.5 6.50001C258 -1.49996 301.5 14.5 316 40C330.5 65.5 308.021 118 306 166.5C304.5 202.5 318 239 336 273C354 307 302.274 361.638 284.5 348.5C250 323 163.499 357.5 121.499 357.5C94.9237 357.5 28.9301 326.522 21.9991 305C12.499 275.5 21.9991 260.717 36.4997 232.5C49.09 208 6.79918 169.162 27.9997 123.5C47.5 81.5 -34.5 64.5 27.9997 25Z" stroke="#E5E7EB" stroke-width="8"/>
</svg>
