<svg width="462" height="343" viewBox="0 0 462 343" fill="none" xmlns="http://www.w3.org/2000/svg">
<path d="M341 3H165.5V23.5H230V47.347C184.599 46.5721 128.709 48.7743 82 50.5C68.4 60.9 69.5001 81.5 59.0001 85.5C18.5 94.5 -3.99994 136.5 5.5001 126C15.0001 115.5 54.5001 106 46.5001 118.5C29.6897 144.766 20.0001 137.5 8.50011 175.5C-2.5107 211.884 57.5001 212 43.5001 239.5C29.5001 267 24.6874 305.758 40.5001 312C59.5001 319.5 70 293 90 309.5C113.207 328.646 144.516 322.885 171 317C189 313 194.288 297.437 198.5 309.5C209.5 341 236.5 343.5 236.5 335C236.5 326.5 222.5 325 236.5 309.5C250.5 294 247 312.5 263 318C279 323.5 301 301.5 300.5 309.5C300.1 315.9 304.667 317.833 307 318C321 317.5 318 331 321.5 335C323.861 338.479 331.327 330.525 336 331.5C344.5 336 368.246 335.006 370.5 332C372.513 329.317 367 325 367 320.5C367 316 384.5 310 383.5 317C382.072 327 391.302 324.163 393.5 320.5C398 313 393.5 305.5 402 298.5H448C457 280 463.5 80.5 453 53.5C449.481 44.4519 434 39.5 423 33C414.2 27.8 395.667 30.8333 387.5 33C390.5 37.8333 394.7 47.5 387.5 47.5C380.3 47.5 378.5 56.8333 378.5 61.5H347V53.5H283V23.5H341V3Z" stroke="#CCCCCC" stroke-width="6"/>
</svg>
