<svg width="464" height="345" viewBox="0 0 464 345" fill="none" xmlns="http://www.w3.org/2000/svg">
<path d="M342 4H166.5V24.5H231V48.347C185.599 47.5721 129.709 49.7743 83 51.5C69.4 61.9 70.5001 82.5 60.0001 86.5C19.5 95.5 -2.99994 137.5 6.5001 127C16.0001 116.5 55.5001 107 47.5001 119.5C30.6897 145.766 21.0001 138.5 9.50011 176.5C-1.5107 212.884 58.5001 213 44.5001 240.5C30.5001 268 25.6874 306.758 41.5001 313C60.5001 320.5 71 294 91 310.5C114.207 329.646 145.516 323.885 172 318C190 314 195.288 298.437 199.5 310.5C210.5 342 237.5 344.5 237.5 336C237.5 327.5 223.5 326 237.5 310.5C251.5 295 248 313.5 264 319C280 324.5 302 302.5 301.5 310.5C301.1 316.9 305.667 318.833 308 319C322 318.5 319 332 322.5 336C324.861 339.479 332.327 331.525 337 332.5C345.5 337 369.246 336.006 371.5 333C373.513 330.317 368 326 368 321.5C368 317 385.5 311 384.5 318C383.072 328 392.302 325.163 394.5 321.5C399 314 394.5 306.5 403 299.5H449C458 281 464.5 81.5 454 54.5C450.481 45.4519 435 40.5 424 34C415.2 28.8 396.667 31.8333 388.5 34C391.5 38.8333 395.7 48.5 388.5 48.5C381.3 48.5 379.5 57.8333 379.5 62.5H348V54.5H284V24.5H342V4Z" stroke="#E5E7EB" stroke-width="8"/>
</svg>
